<svg width="40" height="40" viewBox="0 0 40 40" xmlns="http://www.w3.org/2000/svg"><path d="M15.714 28.83V11.17c0-.956 1.161-1.438 1.83-.76l8.777 8.831c.42.42.42 1.09 0 1.509l-8.776 8.83c-.67.688-1.83.206-1.83-.75zM40 4.286v31.428A4.287 4.287 0 0135.714 40H4.286A4.287 4.287 0 010 35.714V4.286A4.287 4.287 0 014.286 0h31.428A4.287 4.287 0 0140 4.286zm-4.286 30.893V4.82a.537.537 0 00-.535-.535H4.82a.537.537 0 00-.535.535V35.18c0 .294.24.535.535.535H35.18a.537.537 0 00.535-.535z" fill="#FFF" fill-rule="nonzero"/></svg>